<?xml version="1.0" encoding="UTF-8" standalone="no"?>
<!DOCTYPE svg PUBLIC "-//W3C//DTD SVG 1.1//EN" "http://www.w3.org/Graphics/SVG/1.1/DTD/svg11.dtd">
<svg width="100%" height="100%" viewBox="0 0 512 512" version="1.1" xmlns="http://www.w3.org/2000/svg" xmlns:xlink="http://www.w3.org/1999/xlink" xml:space="preserve" xmlns:serif="http://www.serif.com/" style="fill-rule:evenodd;clip-rule:evenodd;stroke-linecap:round;stroke-linejoin:round;stroke-miterlimit:1.5;">
    <g transform="matrix(1,0,0,1,-4,-5)">
        <path d="M403.820743,186.806378C415.278219,209.12073 421.74574,234.411302 421.74574,261.200524C421.74574,351.289259 348.605118,424.429882 258.516383,424.429882C168.427648,424.429882 95.287025,351.289259 95.287025,261.200524C95.287025,171.111789 168.427648,97.971166 258.516383,97.971166C299.896063,97.971166 337.700097,113.402091 366.483102,138.818558C347.946359,125.146668 325.040823,117.06291 300.262123,117.06291C238.598097,117.06291 188.534731,167.126275 188.534731,228.790301C188.534731,290.454328 238.598097,340.517693 300.262123,340.517693C361.926149,340.517693 411.989515,290.454328 411.989515,228.790301C411.989515,213.944331 409.087675,199.770774 403.820743,186.806378Z" style="fill:rgb(119,112,170);"/>
    </g>
    <g transform="matrix(1,0,0,1,-4,-5)">
        <path d="M153.374981,386.02082C117.861444,356.068524 95.287025,311.249991 95.287025,261.200524C95.287025,171.111789 168.427648,97.971166 258.516383,97.971166C299.896063,97.971166 337.700097,113.402091 366.483102,138.818558C347.946359,125.146668 325.040823,117.06291 300.262123,117.06291C261.957954,119.396243 242.385768,129.378882 219.192607,152.363783C191.497361,174.703167 156.250003,215.741463 156.250003,272.074379C157.321247,328.883607 192.250002,363.074376 192.250002,363.074376C192.250002,363.074376 170.750003,358.574376 147.750004,331.074377C129.730586,309.529421 125.521635,285.836169 125.265065,273.218887C125.194149,269.73146 125.425184,267.090208 125.750005,265.574379C127.146445,259.057657 95.608771,323.089274 153.374981,386.02082Z" style="fill:rgb(175,151,198);"/>
    </g>
    <path id="outer-star" serif:id="outer star" d="M300.98058,167.073827C300.903804,167.074111 300.826943,167.074297 300.749999,167.074384C300.749999,167.074384 300.892662,167.065014 301.165154,167.056151C301.860205,166.992894 303.400011,166.887357 305.572088,166.935403C307.036365,166.851328 308.468074,166.729721 309.867936,166.572218C319.905753,165.177742 336.392367,160.486864 349.757044,145.133058C350.390758,144.35445 351.017619,143.548775 351.636623,142.715107C370.436533,115.338561 371.267086,74.591291 371.267086,74.591291C371.267086,74.591291 372.097639,115.338561 390.897549,142.715107C391.516552,143.548775 392.143414,144.35445 392.777128,145.133058C406.141804,160.486864 422.628418,165.177741 432.666235,166.572218C434.066097,166.729721 435.497806,166.851328 436.962084,166.935403C439.134161,166.887357 440.673967,166.992894 441.369018,167.056151C441.64151,167.065014 441.784172,167.074384 441.784172,167.074384C441.707228,167.074297 441.630368,167.074111 441.553591,167.073827C441.57093,167.075577 441.587313,167.077259 441.602734,167.078866C441.663159,167.079875 441.723639,167.081034 441.784172,167.082348C441.784172,167.082348 441.760083,167.085439 441.712792,167.090801C441.760083,167.096163 441.784172,167.099254 441.784172,167.099254C441.723639,167.100568 441.663159,167.101727 441.602734,167.102736C441.587313,167.104343 441.57093,167.106025 441.553591,167.107775C441.630368,167.107491 441.707228,167.107305 441.784172,167.107218C441.784172,167.107218 441.64151,167.116588 441.369018,167.125451C440.673967,167.188708 439.134161,167.294244 436.962084,167.246199C435.497806,167.330274 434.066097,167.451881 432.666235,167.609383C422.628418,169.00386 406.141805,173.694738 392.777128,189.048544C392.143414,189.827152 391.516552,190.632827 390.897549,191.466495C372.097639,218.843041 371.267086,259.590311 371.267086,259.590311C371.267086,259.590311 370.436533,218.843041 351.636623,191.466495C351.017619,190.632827 350.390758,189.827152 349.757044,189.048544C336.392367,173.694738 319.905753,169.00386 309.867936,167.609383C308.468074,167.451881 307.036365,167.330274 305.572088,167.246199C303.400011,167.294244 301.860205,167.188708 301.165154,167.125451C300.892662,167.116588 300.749999,167.107218 300.749999,167.107218C300.826943,167.107305 300.903804,167.107491 300.98058,167.107775C300.963242,167.106025 300.946858,167.104343 300.931437,167.102736C300.871012,167.101727 300.810533,167.100568 300.749999,167.099254C300.749999,167.099254 300.774089,167.096163 300.82138,167.090801C300.774089,167.085439 300.749999,167.082348 300.749999,167.082348C300.810533,167.081034 300.871012,167.079875 300.931437,167.078866C300.946858,167.077259 300.963242,167.075577 300.98058,167.073827ZM439.560286,167.090801C439.292657,167.084572 439.026074,167.077091 438.760515,167.069063C438.586337,167.075117 438.4054,167.082311 438.217911,167.090801C438.4054,167.099291 438.586337,167.106485 438.760515,167.112539C439.026074,167.104511 439.292657,167.09703 439.560286,167.090801ZM302.973886,167.090801C303.241515,167.09703 303.508097,167.104511 303.773657,167.112539C303.947835,167.106485 304.128771,167.099291 304.316261,167.090801C304.128771,167.082311 303.947835,167.075117 303.773657,167.069063C303.508097,167.077091 303.241515,167.084572 302.973886,167.090801Z" style="fill:rgb(184,137,101);stroke:rgb(184,137,101);stroke-width:2.5px;"/>
    <g id="inner-star" serif:id="inner star" transform="matrix(0.478393,0,0,0.478393,193.655475,87.155715)">
        <path d="M300.98058,167.073827C300.903804,167.074111 300.826943,167.074297 300.749999,167.074384C300.749999,167.074384 300.892662,167.065014 301.165154,167.056151C301.860205,166.992894 303.400011,166.887357 305.572088,166.935403C307.036365,166.851328 308.468074,166.729721 309.867936,166.572218C319.905753,165.177742 336.392367,160.486864 349.757044,145.133058C350.390758,144.35445 351.017619,143.548775 351.636623,142.715107C370.436533,115.338561 371.267086,74.591291 371.267086,74.591291C371.267086,74.591291 372.097639,115.338561 390.897549,142.715107C391.516552,143.548775 392.143414,144.35445 392.777128,145.133058C406.141804,160.486864 422.628418,165.177741 432.666235,166.572218C434.066097,166.729721 435.497806,166.851328 436.962084,166.935403C439.134161,166.887357 440.673967,166.992894 441.369018,167.056151C441.64151,167.065014 441.784172,167.074384 441.784172,167.074384C441.707228,167.074297 441.630368,167.074111 441.553591,167.073827C441.57093,167.075577 441.587313,167.077259 441.602734,167.078866C441.663159,167.079875 441.723639,167.081034 441.784172,167.082348C441.784172,167.082348 441.760083,167.085439 441.712792,167.090801C441.760083,167.096163 441.784172,167.099254 441.784172,167.099254C441.723639,167.100568 441.663159,167.101727 441.602734,167.102736C441.587313,167.104343 441.57093,167.106025 441.553591,167.107775C441.630368,167.107491 441.707228,167.107305 441.784172,167.107218C441.784172,167.107218 441.64151,167.116588 441.369018,167.125451C440.673967,167.188708 439.134161,167.294244 436.962084,167.246199C435.497806,167.330274 434.066097,167.451881 432.666235,167.609383C422.628418,169.00386 406.141805,173.694738 392.777128,189.048544C392.143414,189.827152 391.516552,190.632827 390.897549,191.466495C372.097639,218.843041 371.267086,259.590311 371.267086,259.590311C371.267086,259.590311 370.436533,218.843041 351.636623,191.466495C351.017619,190.632827 350.390758,189.827152 349.757044,189.048544C336.392367,173.694738 319.905753,169.00386 309.867936,167.609383C308.468074,167.451881 307.036365,167.330274 305.572088,167.246199C303.400011,167.294244 301.860205,167.188708 301.165154,167.125451C300.892662,167.116588 300.749999,167.107218 300.749999,167.107218C300.826943,167.107305 300.903804,167.107491 300.98058,167.107775C300.963242,167.106025 300.946858,167.104343 300.931437,167.102736C300.871012,167.101727 300.810533,167.100568 300.749999,167.099254C300.749999,167.099254 300.774089,167.096163 300.82138,167.090801C300.774089,167.085439 300.749999,167.082348 300.749999,167.082348C300.810533,167.081034 300.871012,167.079875 300.931437,167.078866C300.946858,167.077259 300.963242,167.075577 300.98058,167.073827ZM439.560286,167.090801C439.292657,167.084572 439.026074,167.077091 438.760515,167.069063C438.586337,167.075117 438.4054,167.082311 438.217911,167.090801C438.4054,167.099291 438.586337,167.106485 438.760515,167.112539C439.026074,167.104511 439.292657,167.09703 439.560286,167.090801ZM302.973886,167.090801C303.241515,167.09703 303.508097,167.104511 303.773657,167.112539C303.947835,167.106485 304.128771,167.099291 304.316261,167.090801C304.128771,167.082311 303.947835,167.075117 303.773657,167.069063C303.508097,167.077091 303.241515,167.084572 302.973886,167.090801Z" style="fill:rgb(202,162,133);stroke:rgb(194,150,118);stroke-width:6.1px;"/>
    </g>
</svg>
